<svg xmlns="http://www.w3.org/2000/svg" viewBox="0 0 64 64" width="64" height="64"><title>UI</title><defs><linearGradient id="l1" x1="0" y1="0" x2="0.35" y2="1" gradientUnits="objectBoundingBox"><stop offset="0" stop-color="#d6efb3"/><stop offset="0.5" stop-color="#9bd548"/><stop offset="1" stop-color="#638f23"/></linearGradient><linearGradient id="l2" x1="0" y1="0" x2="0" y2="1" gradientUnits="objectBoundingBox"><stop offset="0" stop-color="#fff" stop-opacity="0.42"/><stop offset="1" stop-color="#fff" stop-opacity="0"/></linearGradient></defs><rect x="6" y="8" width="54" height="54" rx="12" fill="#4c6e1b" fill-opacity="0.9"/><rect x="4" y="4" width="54" height="54" rx="12" fill="url(#l1)" stroke="#0b0f15" stroke-opacity="0.65" stroke-width="1.4"/><path d="M 9 8.5 h 44 a 5 5 0 0 1 5 5 v 12 C 44 20 20 20 4.5 26 v -12.5 a 5 5 0 0 1 4.5 -5 Z" fill="url(#l2)"/><path d="M 13 16 H 49 V 42 H 13 Z M 13 23 H 49" transform="translate(1 1.4)" fill="none" fill-opacity="0.35" stroke="#0b0f15" stroke-opacity="0.35" stroke-width="4.2" stroke-linecap="round" stroke-linejoin="round"/><path d="M 13 16 H 49 V 42 H 13 Z M 13 23 H 49" fill="none" stroke="#ffffff" stroke-width="4.2" stroke-linecap="round" stroke-linejoin="round"/><circle cx="18" cy="20.9" r="1.2" fill="#0b0f15" fill-opacity="0.35"/><circle cx="17" cy="19.5" r="1.2" fill="#ffffff"/><circle cx="22" cy="20.9" r="1.2" fill="#0b0f15" fill-opacity="0.35"/><circle cx="21" cy="19.5" r="1.2" fill="#ffffff"/></svg>
