<svg xmlns="http://www.w3.org/2000/svg" viewBox="0 0 64 64" width="64" height="64"><title>AnimationTree</title><defs><radialGradient id="r1" cx="0.5" cy="0.5" r="0.5" gradientUnits="objectBoundingBox"><stop offset="0" stop-color="#000" stop-opacity="0.42"/><stop offset="0.65" stop-color="#000" stop-opacity="0.189"/><stop offset="1" stop-color="#000" stop-opacity="0"/></radialGradient><linearGradient id="l2" x1="0" y1="0" x2="1" y2="1" gradientUnits="objectBoundingBox"><stop offset="0" stop-color="#ffffff"/><stop offset="1" stop-color="#ba9fff"/></linearGradient><linearGradient id="l3" x1="0" y1="0" x2="1" y2="1" gradientUnits="objectBoundingBox"><stop offset="0" stop-color="#ffffff"/><stop offset="1" stop-color="#ba9fff"/></linearGradient><linearGradient id="l4" x1="0" y1="0" x2="1" y2="1" gradientUnits="objectBoundingBox"><stop offset="0" stop-color="#ffffff"/><stop offset="1" stop-color="#ba9fff"/></linearGradient><linearGradient id="l5" x1="0" y1="0" x2="0" y2="1" gradientUnits="objectBoundingBox"><stop offset="0" stop-color="#e3d2fa"/><stop offset="1" stop-color="#8d47ec"/></linearGradient><linearGradient id="l6" x1="0" y1="0" x2="0" y2="1" gradientUnits="objectBoundingBox"><stop offset="0" stop-color="#faf7fe"/><stop offset="1" stop-color="#a46cf0"/></linearGradient><linearGradient id="l7" x1="0" y1="0" x2="0" y2="1" gradientUnits="objectBoundingBox"><stop offset="0" stop-color="#d2b6f7"/><stop offset="1" stop-color="#7c2be9"/></linearGradient></defs><ellipse cx="32" cy="58" rx="26" ry="3.5" fill="url(#r1)"/><path d="M 24.00 16.00 L 38.00 16.00" fill="none" stroke="#0b0f15" stroke-opacity="0.6" stroke-width="4.2" stroke-linecap="round" stroke-linejoin="round"/><path d="M 24.00 16.00 L 38.00 16.00" fill="none" stroke="#e6dcff" stroke-opacity="1.0" stroke-width="2.4" stroke-linecap="round" stroke-linejoin="round"/><polygon points="41.00,16.00 34.00,19.85 34.00,12.15" fill="url(#l2)" stroke="#0b0f15" stroke-opacity="0.65" stroke-width="1.2" stroke-linejoin="round"/><path d="M 50.00 23.00 L 40.00 38.00" fill="none" stroke="#0b0f15" stroke-opacity="0.6" stroke-width="4.2" stroke-linecap="round" stroke-linejoin="round"/><path d="M 50.00 23.00 L 40.00 38.00" fill="none" stroke="#e6dcff" stroke-opacity="1.0" stroke-width="2.4" stroke-linecap="round" stroke-linejoin="round"/><polygon points="38.00,41.00 38.30,33.02 44.90,36.98" fill="url(#l3)" stroke="#0b0f15" stroke-opacity="0.65" stroke-width="1.2" stroke-linejoin="round"/><path d="M 24.00 42.00 L 14.00 26.00" fill="none" stroke="#0b0f15" stroke-opacity="0.6" stroke-width="4.2" stroke-linecap="round" stroke-linejoin="round"/><path d="M 24.00 42.00 L 14.00 26.00" fill="none" stroke="#e6dcff" stroke-opacity="1.0" stroke-width="2.4" stroke-linecap="round" stroke-linejoin="round"/><polygon points="12.50,23.00 19.07,27.54 12.19,30.98" fill="url(#l4)" stroke="#0b0f15" stroke-opacity="0.65" stroke-width="1.2" stroke-linejoin="round"/><rect x="4.5" y="10.5" width="22" height="15" rx="5" fill="#4a109a"/><rect x="3" y="8" width="22" height="15" rx="5" fill="url(#l5)" stroke="#0b0f15" stroke-opacity="0.75" stroke-width="1.4"/><rect x="6" y="10" width="16" height="3" rx="1.5" fill="#fff" fill-opacity="0.45"/><rect x="41.5" y="10.5" width="21" height="15" rx="5" fill="#5c13bf"/><rect x="40" y="8" width="21" height="15" rx="5" fill="url(#l6)" stroke="#0b0f15" stroke-opacity="0.75" stroke-width="1.4"/><rect x="43" y="10" width="15" height="3" rx="1.5" fill="#fff" fill-opacity="0.45"/><rect x="21.5" y="42.5" width="24" height="15" rx="5" fill="#3d0d7e"/><rect x="20" y="40" width="24" height="15" rx="5" fill="url(#l7)" stroke="#0b0f15" stroke-opacity="0.75" stroke-width="1.4"/><rect x="23" y="42" width="18" height="3" rx="1.5" fill="#fff" fill-opacity="0.45"/></svg>
