<svg xmlns="http://www.w3.org/2000/svg" viewBox="0 0 64 64" width="64" height="64"><title>AnimationPlayer</title><defs><radialGradient id="r1" cx="0.5" cy="0.5" r="0.5" gradientUnits="objectBoundingBox"><stop offset="0" stop-color="#000" stop-opacity="0.42"/><stop offset="0.65" stop-color="#000" stop-opacity="0.189"/><stop offset="1" stop-color="#000" stop-opacity="0"/></radialGradient><linearGradient id="l2" x1="0" y1="0" x2="0" y2="1" gradientUnits="objectBoundingBox"><stop offset="0" stop-color="#524a63"/><stop offset="1" stop-color="#27232f"/></linearGradient><linearGradient id="l3" x1="0" y1="0" x2="1" y2="1" gradientUnits="objectBoundingBox"><stop offset="0" stop-color="#f4eefd"/><stop offset="0.55" stop-color="#a46cf0"/><stop offset="1" stop-color="#6c17df"/></linearGradient></defs><ellipse cx="32" cy="57" rx="26" ry="4.5" fill="url(#r1)"/><rect x="5" y="14" width="54" height="38" rx="5" fill="url(#l2)" stroke="#0b0f15" stroke-opacity="0.8" stroke-width="1.5"/><rect x="9" y="17" width="4.4" height="4" rx="1" fill="#cfc6de" fill-opacity="0.9"/><rect x="9" y="45" width="4.4" height="4" rx="1" fill="#cfc6de" fill-opacity="0.9"/><rect x="17" y="17" width="4.4" height="4" rx="1" fill="#cfc6de" fill-opacity="0.9"/><rect x="17" y="45" width="4.4" height="4" rx="1" fill="#cfc6de" fill-opacity="0.9"/><rect x="25" y="17" width="4.4" height="4" rx="1" fill="#cfc6de" fill-opacity="0.9"/><rect x="25" y="45" width="4.4" height="4" rx="1" fill="#cfc6de" fill-opacity="0.9"/><rect x="33" y="17" width="4.4" height="4" rx="1" fill="#cfc6de" fill-opacity="0.9"/><rect x="33" y="45" width="4.4" height="4" rx="1" fill="#cfc6de" fill-opacity="0.9"/><rect x="41" y="17" width="4.4" height="4" rx="1" fill="#cfc6de" fill-opacity="0.9"/><rect x="41" y="45" width="4.4" height="4" rx="1" fill="#cfc6de" fill-opacity="0.9"/><rect x="49" y="17" width="4.4" height="4" rx="1" fill="#cfc6de" fill-opacity="0.9"/><rect x="49" y="45" width="4.4" height="4" rx="1" fill="#cfc6de" fill-opacity="0.9"/><rect x="57" y="17" width="4.4" height="4" rx="1" fill="#cfc6de" fill-opacity="0.9"/><rect x="57" y="45" width="4.4" height="4" rx="1" fill="#cfc6de" fill-opacity="0.9"/><path d="M 25 21.5 L 44 33 L 25 44.5 Z" fill="url(#l3)" stroke="#0b0f15" stroke-opacity="0.8" stroke-width="1.6" stroke-linejoin="round"/><path d="M 27 24.5 L 38.5 31.4" stroke="#fff" stroke-opacity="0.7" stroke-width="1.5" stroke-linecap="round"/></svg>
