<svg xmlns="http://www.w3.org/2000/svg" viewBox="0 0 64 64" width="64" height="64"><title>Camera3D</title><defs><radialGradient id="r1" cx="0.5" cy="0.5" r="0.5" gradientUnits="objectBoundingBox"><stop offset="0" stop-color="#000" stop-opacity="0.42"/><stop offset="0.65" stop-color="#000" stop-opacity="0.189"/><stop offset="1" stop-color="#000" stop-opacity="0"/></radialGradient><radialGradient id="r2" cx="0.38" cy="0.32" r="0.72" fx="0.34" fy="0.28" gradientUnits="objectBoundingBox"><stop offset="0" stop-color="#b2bbc7"/><stop offset="0.45" stop-color="#7b8ca3"/><stop offset="0.8" stop-color="#566476"/><stop offset="1" stop-color="#21262c"/></radialGradient><linearGradient id="l3" x1="0" y1="0" x2="1" y2="1" gradientUnits="objectBoundingBox"><stop offset="0" stop-color="#fff" stop-opacity="0"/><stop offset="1" stop-color="#98a4b4" stop-opacity="0.55"/></linearGradient><radialGradient id="r4" cx="0.5" cy="0.5" r="0.5" gradientUnits="objectBoundingBox"><stop offset="0" stop-color="#fff" stop-opacity="0.57"/><stop offset="1" stop-color="#fff" stop-opacity="0"/></radialGradient><radialGradient id="r5" cx="0.38" cy="0.32" r="0.72" fx="0.34" fy="0.28" gradientUnits="objectBoundingBox"><stop offset="0" stop-color="#b2bbc7"/><stop offset="0.45" stop-color="#7b8ca3"/><stop offset="0.8" stop-color="#566476"/><stop offset="1" stop-color="#21262c"/></radialGradient><linearGradient id="l6" x1="0" y1="0" x2="1" y2="1" gradientUnits="objectBoundingBox"><stop offset="0" stop-color="#fff" stop-opacity="0"/><stop offset="1" stop-color="#98a4b4" stop-opacity="0.55"/></linearGradient><radialGradient id="r7" cx="0.5" cy="0.5" r="0.5" gradientUnits="objectBoundingBox"><stop offset="0" stop-color="#fff" stop-opacity="0.57"/><stop offset="1" stop-color="#fff" stop-opacity="0"/></radialGradient><linearGradient id="l8" x1="0" y1="0" x2="0" y2="1" gradientUnits="objectBoundingBox"><stop offset="0" stop-color="#8998ae"/><stop offset="0.5" stop-color="#465262"/><stop offset="1" stop-color="#16191d"/></linearGradient><linearGradient id="l9" x1="0" y1="0" x2="0" y2="1" gradientUnits="objectBoundingBox"><stop offset="0" stop-color="#5b6b80"/><stop offset="1" stop-color="#2d343e"/></linearGradient><radialGradient id="r10" cx="0.4" cy="0.35" r="0.7" fx="0.35" fy="0.3" gradientUnits="objectBoundingBox"><stop offset="0" stop-color="#e8fffd"/><stop offset="0.35" stop-color="#56ddd7"/><stop offset="0.8" stop-color="#24b3ad"/><stop offset="1" stop-color="#0f4946"/></radialGradient></defs><ellipse cx="32" cy="56" rx="24" ry="5.5" fill="url(#r1)"/><circle cx="20.0" cy="17.0" r="8.5" fill="url(#r2)"/><path d="M 18.73 25.33 A 8.5 8.5 0 0 0 28.33 18.27" fill="none" stroke="url(#l3)" stroke-width="1.00"/><ellipse cx="17.11" cy="13.60" rx="3.06" ry="2.04" fill="url(#r4)" transform="rotate(-30 17.11 13.60)"/><circle cx="20.0" cy="17.0" r="8.5" fill="none" stroke="#0b0f15" stroke-opacity="0.7" stroke-width="1.4"/><circle cx="20.00" cy="17.00" r="2.72" fill="#1c2027"/><circle cx="36.0" cy="17.0" r="7.5" fill="url(#r5)"/><path d="M 34.88 24.35 A 7.5 7.5 0 0 0 43.35 18.12" fill="none" stroke="url(#l6)" stroke-width="1.00"/><ellipse cx="33.45" cy="14.00" rx="2.70" ry="1.80" fill="url(#r7)" transform="rotate(-30 33.45 14.00)"/><circle cx="36.0" cy="17.0" r="7.5" fill="none" stroke="#0b0f15" stroke-opacity="0.7" stroke-width="1.4"/><circle cx="36.00" cy="17.00" r="2.40" fill="#1c2027"/><rect x="8.00" y="24.00" width="34.00" height="26.00" rx="5.00" fill="url(#l8)" stroke="#0b0f15" stroke-opacity="0.75" stroke-width="1.5"/><path d="M 10.00 26.50 h 29.00" stroke="#97a3b4" stroke-opacity="0.7" stroke-width="1.2" stroke-linecap="round"/><polygon points="42.00,31.00 54.00,25.00 54.00,49.00 42.00,43.00" fill="url(#l9)" stroke="#0b0f15" stroke-opacity="0.75" stroke-width="1.5" stroke-linejoin="round"/><circle cx="25.00" cy="37.00" r="8.50" fill="url(#r10)" stroke="#0b0f15" stroke-opacity="0.75" stroke-width="1.4"/><circle cx="25.00" cy="37.00" r="4.00" fill="#0a3432" fill-opacity="0.75"/><circle cx="22.40" cy="34.20" r="1.80" fill="#fff" fill-opacity="0.9"/></svg>
