<svg xmlns="http://www.w3.org/2000/svg" viewBox="0 0 64 64" width="64" height="64"><title>FogVolume3D</title><defs><radialGradient id="r1" cx="0.5" cy="0.5" r="0.5" gradientUnits="objectBoundingBox"><stop offset="0" stop-color="#000" stop-opacity="0.25"/><stop offset="0.65" stop-color="#000" stop-opacity="0.1125"/><stop offset="1" stop-color="#000" stop-opacity="0"/></radialGradient><radialGradient id="r2" cx="0.4" cy="0.3" r="0.75" gradientUnits="objectBoundingBox"><stop offset="0" stop-color="#ffffff"/><stop offset="0.65" stop-color="#e6edf5"/><stop offset="1" stop-color="#a9b8c9"/></radialGradient><radialGradient id="r3" cx="0.4" cy="0.3" r="0.75" gradientUnits="objectBoundingBox"><stop offset="0" stop-color="#ffffff"/><stop offset="0.65" stop-color="#e6edf5"/><stop offset="1" stop-color="#a9b8c9"/></radialGradient><radialGradient id="r4" cx="0.4" cy="0.3" r="0.75" gradientUnits="objectBoundingBox"><stop offset="0" stop-color="#ffffff"/><stop offset="0.65" stop-color="#e6edf5"/><stop offset="1" stop-color="#a9b8c9"/></radialGradient><radialGradient id="r5" cx="0.4" cy="0.3" r="0.75" gradientUnits="objectBoundingBox"><stop offset="0" stop-color="#ffffff"/><stop offset="0.65" stop-color="#e6edf5"/><stop offset="1" stop-color="#a9b8c9"/></radialGradient></defs><ellipse cx="32" cy="55" rx="26" ry="4" fill="url(#r1)"/><path d="M 10.0 49 q 5.5 -4 11.0 0 t 11.0 0 t 11.0 0 t 11.0 0" fill="none" stroke="#dfe7f1" stroke-opacity="0.55" stroke-width="3.2" stroke-linecap="round"/><path d="M 12.0 43 q 5.0 -4 10.0 0 t 10.0 0 t 10.0 0 t 10.0 0" fill="none" stroke="#dfe7f1" stroke-opacity="0.75" stroke-width="3.2" stroke-linecap="round"/><circle cx="20" cy="32.4" r="10.4" fill="#0b0f15" fill-opacity="0.55"/><circle cx="31" cy="26.4" r="13.4" fill="#0b0f15" fill-opacity="0.55"/><circle cx="43" cy="31.4" r="10.9" fill="#0b0f15" fill-opacity="0.55"/><circle cx="32" cy="35.4" r="10.4" fill="#0b0f15" fill-opacity="0.55"/><circle cx="20" cy="31" r="9" fill="url(#r2)"/><circle cx="31" cy="25" r="12" fill="url(#r3)"/><circle cx="43" cy="30" r="9.5" fill="url(#r4)"/><circle cx="32" cy="34" r="9" fill="url(#r5)"/></svg>
