<svg xmlns="http://www.w3.org/2000/svg" viewBox="0 0 64 64" width="64" height="64"><title>Hurtbox3D</title><defs><radialGradient id="r1" cx="0.5" cy="0.5" r="0.5" gradientUnits="objectBoundingBox"><stop offset="0" stop-color="#000" stop-opacity="0.42"/><stop offset="0.65" stop-color="#000" stop-opacity="0.189"/><stop offset="1" stop-color="#000" stop-opacity="0"/></radialGradient><radialGradient id="r2" cx="0.35" cy="0.3" r="0.75" gradientUnits="objectBoundingBox"><stop offset="0" stop-color="#f9d0d2"/><stop offset="0.6" stop-color="#e8484f"/><stop offset="1" stop-color="#9d141a"/></radialGradient></defs><ellipse cx="32" cy="58" rx="17" ry="4" fill="url(#r1)"/><path d="M 32 49.099999999999994 C 5.400000000000002 32 11.100000000000001 13.0 22.5 13.0 C 28.2 13.0 32 16.8 32 21.55 C 32 16.8 35.8 13.0 41.5 13.0 C 52.9 13.0 58.599999999999994 32 32 49.099999999999994 Z" fill="url(#r2)" stroke="#0b0f15" stroke-opacity="0.8" stroke-width="1.6" stroke-linejoin="round"/><path d="M 34 14 L 28 25 L 36 30 L 29 42" fill="none" stroke="#3a0d10" stroke-width="2.6" stroke-linejoin="round" stroke-linecap="round"/><ellipse cx="21" cy="20" rx="5" ry="3" fill="#fff" fill-opacity="0.6" transform="rotate(-35 21 20)"/><path d="M 6.00 8.00 L 11.00 13.00" fill="none" stroke="#0b0f15" stroke-opacity="0.6" stroke-width="4.2" stroke-linecap="round" stroke-linejoin="round"/><path d="M 6.00 8.00 L 11.00 13.00" fill="none" stroke="#ffd24a" stroke-opacity="1.0" stroke-width="2.4" stroke-linecap="round" stroke-linejoin="round"/><path d="M 58.00 8.00 L 53.00 13.00" fill="none" stroke="#0b0f15" stroke-opacity="0.6" stroke-width="4.2" stroke-linecap="round" stroke-linejoin="round"/><path d="M 58.00 8.00 L 53.00 13.00" fill="none" stroke="#ffd24a" stroke-opacity="1.0" stroke-width="2.4" stroke-linecap="round" stroke-linejoin="round"/><path d="M 4.00 30.00 L 10.00 30.00" fill="none" stroke="#0b0f15" stroke-opacity="0.6" stroke-width="4.2" stroke-linecap="round" stroke-linejoin="round"/><path d="M 4.00 30.00 L 10.00 30.00" fill="none" stroke="#ffd24a" stroke-opacity="1.0" stroke-width="2.4" stroke-linecap="round" stroke-linejoin="round"/></svg>
