<svg xmlns="http://www.w3.org/2000/svg" viewBox="0 0 64 64" width="64" height="64"><title>NavigationRegion3D</title><defs><radialGradient id="r1" cx="0.5" cy="0.5" r="0.5" gradientUnits="objectBoundingBox"><stop offset="0" stop-color="#000" stop-opacity="0.42"/><stop offset="0.65" stop-color="#000" stop-opacity="0.189"/><stop offset="1" stop-color="#000" stop-opacity="0"/></radialGradient><linearGradient id="l2" x1="0" y1="0" x2="1" y2="1" gradientUnits="objectBoundingBox"><stop offset="0" stop-color="#71cf61"/><stop offset="1" stop-color="#4bbb39"/></linearGradient><linearGradient id="l3" x1="0" y1="0" x2="1" y2="1" gradientUnits="objectBoundingBox"><stop offset="0" stop-color="#3b8e2e"/><stop offset="1" stop-color="#2e6f24"/></linearGradient><linearGradient id="l4" x1="0" y1="0" x2="1" y2="1" gradientUnits="objectBoundingBox"><stop offset="0" stop-color="#b0e6a7"/><stop offset="1" stop-color="#93dd87"/></linearGradient></defs><ellipse cx="32" cy="55" rx="27" ry="5.5" fill="url(#r1)"/><polygon points="-4.37,50.00 32.00,71.00 32.00,67.00 -4.37,46.00" fill="url(#l2)"/><polygon points="32.00,71.00 68.37,50.00 68.37,46.00 32.00,67.00" fill="url(#l3)"/><polygon points="32.00,25.00 68.37,46.00 32.00,67.00 -4.37,46.00" fill="url(#l4)"/><polyline points="-4.37,46.00 32.00,67.00 68.37,46.00" fill="none" stroke="#cdeec7" stroke-opacity="0.9" stroke-width="1.1" stroke-linejoin="round"/><line x1="32.00" y1="67.00" x2="32.00" y2="71.00" stroke="#cdeec7" stroke-opacity="0.45" stroke-width="1"/><polygon points="-4.37,50.00 32.00,71.00 68.37,50.00 68.37,46.00 32.00,25.00 -4.37,46.00" fill="none" stroke="#0b0f15" stroke-opacity="0.7" stroke-width="1.4" stroke-linejoin="round"/><line x1="32.00" y1="25.00" x2="32.00" y2="67.00" stroke="#eaffdf" stroke-opacity="0.85" stroke-width="1.4"/><line x1="50.19" y1="35.50" x2="13.81" y2="56.50" stroke="#eaffdf" stroke-opacity="0.85" stroke-width="1.4"/><line x1="13.81" y1="35.50" x2="50.19" y2="56.50" stroke="#eaffdf" stroke-opacity="0.85" stroke-width="1.4"/><line x1="50.19" y1="35.50" x2="13.81" y2="35.50" stroke="#eaffdf" stroke-opacity="0.85" stroke-width="1.4"/><line x1="50.19" y1="56.50" x2="13.81" y2="56.50" stroke="#eaffdf" stroke-opacity="0.85" stroke-width="1.4"/><circle cx="32.00" cy="25.00" r="1.9" fill="#ffffff"/><circle cx="68.37" cy="46.00" r="1.9" fill="#ffffff"/><circle cx="32.00" cy="67.00" r="1.9" fill="#ffffff"/><circle cx="-4.37" cy="46.00" r="1.9" fill="#ffffff"/><circle cx="32.00" cy="46.00" r="1.9" fill="#ffffff"/></svg>
