<svg xmlns="http://www.w3.org/2000/svg" viewBox="0 0 64 64" width="64" height="64"><title>RigidBody3D</title><defs><radialGradient id="r1" cx="0.5" cy="0.5" r="0.5" gradientUnits="objectBoundingBox"><stop offset="0" stop-color="#000" stop-opacity="0.42"/><stop offset="0.65" stop-color="#000" stop-opacity="0.189"/><stop offset="1" stop-color="#000" stop-opacity="0"/></radialGradient><linearGradient id="l2" x1="0" y1="0" x2="1" y2="1" gradientUnits="objectBoundingBox"><stop offset="0" stop-color="#c79968"/><stop offset="1" stop-color="#b17b41"/></linearGradient><linearGradient id="l3" x1="0" y1="0" x2="1" y2="1" gradientUnits="objectBoundingBox"><stop offset="0" stop-color="#865e34"/><stop offset="1" stop-color="#694929"/></linearGradient><linearGradient id="l4" x1="0" y1="0" x2="1" y2="1" gradientUnits="objectBoundingBox"><stop offset="0" stop-color="#e2c6aa"/><stop offset="1" stop-color="#d7b28c"/></linearGradient><linearGradient id="l5" x1="0" y1="0" x2="1" y2="1" gradientUnits="objectBoundingBox"><stop offset="0" stop-color="#ffebb0"/><stop offset="1" stop-color="#ffc30d"/></linearGradient></defs><ellipse cx="34" cy="58" rx="17" ry="4" fill="url(#r1)"/><path d="M 13.00 10.00 L 22.00 16.00" fill="none" stroke="#0b0f15" stroke-opacity="0.6" stroke-width="4.0" stroke-linecap="round" stroke-linejoin="round"/><path d="M 13.00 10.00 L 22.00 16.00" fill="none" stroke="#d8e6ff" stroke-opacity="0.9" stroke-width="2.2" stroke-linecap="round" stroke-linejoin="round"/><path d="M 8.00 20.00 L 17.00 26.00" fill="none" stroke="#0b0f15" stroke-opacity="0.6" stroke-width="4.0" stroke-linecap="round" stroke-linejoin="round"/><path d="M 8.00 20.00 L 17.00 26.00" fill="none" stroke="#d8e6ff" stroke-opacity="0.75" stroke-width="2.2" stroke-linecap="round" stroke-linejoin="round"/><path d="M 12.00 30.00 L 21.00 36.00" fill="none" stroke="#0b0f15" stroke-opacity="0.6" stroke-width="4.0" stroke-linecap="round" stroke-linejoin="round"/><path d="M 12.00 30.00 L 21.00 36.00" fill="none" stroke="#d8e6ff" stroke-opacity="0.6000000000000001" stroke-width="2.2" stroke-linecap="round" stroke-linejoin="round"/><g transform="rotate(-16 36 30)"><polygon points="15.22,44.00 36.00,56.00 36.00,32.00 15.22,20.00" fill="url(#l2)"/><polygon points="36.00,56.00 56.78,44.00 56.78,20.00 36.00,32.00" fill="url(#l3)"/><polygon points="36.00,8.00 56.78,20.00 36.00,32.00 15.22,20.00" fill="url(#l4)"/><polyline points="15.22,20.00 36.00,32.00 56.78,20.00" fill="none" stroke="#ebdbc9" stroke-opacity="0.9" stroke-width="1.1" stroke-linejoin="round"/><line x1="36.00" y1="32.00" x2="36.00" y2="56.00" stroke="#ebdbc9" stroke-opacity="0.45" stroke-width="1"/><polygon points="15.22,44.00 36.00,56.00 56.78,44.00 56.78,20.00 36.00,8.00 15.22,20.00" fill="none" stroke="#0b0f15" stroke-opacity="0.7" stroke-width="1.4" stroke-linejoin="round"/><line x1="15.22" y1="35.84" x2="36.00" y2="47.84" stroke="#6a4a27" stroke-width="1.1"/><line x1="15.22" y1="27.92" x2="36.00" y2="39.92" stroke="#6a4a27" stroke-width="1.1"/><line x1="36.00" y1="47.84" x2="56.78" y2="35.84" stroke="#6a4a27" stroke-width="1.1"/><line x1="36.00" y1="39.92" x2="56.78" y2="27.92" stroke="#6a4a27" stroke-width="1.1"/></g><path d="M 51.00 44.00 L 51.00 54.40" fill="none" stroke="#0b0f15" stroke-opacity="0.6" stroke-width="4.8" stroke-linecap="round" stroke-linejoin="round"/><path d="M 51.00 44.00 L 51.00 54.40" fill="none" stroke="#ffd24a" stroke-opacity="1.0" stroke-width="3" stroke-linecap="round" stroke-linejoin="round"/><polygon points="51.00,60.00 47.15,53.00 54.85,53.00" fill="url(#l5)" stroke="#0b0f15" stroke-opacity="0.65" stroke-width="1.2" stroke-linejoin="round"/></svg>
