<svg xmlns="http://www.w3.org/2000/svg" viewBox="0 0 64 64" width="64" height="64"><title>WorldEnvironment3D</title><defs><radialGradient id="r1" cx="0.5" cy="0.5" r="0.5" gradientUnits="objectBoundingBox"><stop offset="0" stop-color="#000" stop-opacity="0.42"/><stop offset="0.65" stop-color="#000" stop-opacity="0.189"/><stop offset="1" stop-color="#000" stop-opacity="0"/></radialGradient><linearGradient id="l2" x1="0" y1="0" x2="0" y2="1" gradientUnits="objectBoundingBox"><stop offset="0" stop-color="#7cc45d"/><stop offset="1" stop-color="#356e2a"/></linearGradient><linearGradient id="l3" x1="0" y1="0" x2="0" y2="1" gradientUnits="objectBoundingBox"><stop offset="0" stop-color="#d3efff"/><stop offset="0.6" stop-color="#4aa8f0"/><stop offset="1" stop-color="#2d6fbe"/></linearGradient><radialGradient id="r4" cx="0.38" cy="0.32" r="0.72" fx="0.34" fy="0.28" gradientUnits="objectBoundingBox"><stop offset="0" stop-color="#fff8e7"/><stop offset="0.45" stop-color="#ffdf8c"/><stop offset="0.8" stop-color="#ffc83a"/><stop offset="1" stop-color="#b88502"/></radialGradient><linearGradient id="l5" x1="0" y1="0" x2="1" y2="1" gradientUnits="objectBoundingBox"><stop offset="0" stop-color="#fff" stop-opacity="0"/><stop offset="1" stop-color="#ffecba" stop-opacity="0.55"/></linearGradient><radialGradient id="r6" cx="0.5" cy="0.5" r="0.5" gradientUnits="objectBoundingBox"><stop offset="0" stop-color="#fff" stop-opacity="0.95"/><stop offset="1" stop-color="#fff" stop-opacity="0"/></radialGradient><linearGradient id="l7" x1="0" y1="0" x2="1" y2="1" gradientUnits="objectBoundingBox"><stop offset="0" stop-color="#fff" stop-opacity="0.55"/><stop offset="1" stop-color="#fff" stop-opacity="0"/></linearGradient></defs><ellipse cx="32" cy="57" rx="27" ry="4" fill="url(#r1)"/><ellipse cx="32" cy="50" rx="28" ry="8" fill="url(#l2)" stroke="#0b0f15" stroke-opacity="0.7" stroke-width="1.4"/><path d="M 8 50 A 24 42 0 0 1 56 50 A 24 5.5 0 0 1 8 50 Z" fill="url(#l3)" fill-opacity="0.92" stroke="#0b0f15" stroke-opacity="0.7" stroke-width="1.4"/><circle cx="41" cy="22" r="5.5" fill="url(#r4)"/><path d="M 40.17 27.39 A 5.5 5.5 0 0 0 46.39 22.82" fill="none" stroke="url(#l5)" stroke-width="1.00"/><ellipse cx="39.13" cy="19.80" rx="1.98" ry="1.32" fill="url(#r6)" transform="rotate(-30 39.13 19.80)"/><circle cx="20" cy="29" r="4.5" fill="#ffffff" fill-opacity="0.95"/><circle cx="25.5" cy="27" r="5.5" fill="#ffffff" fill-opacity="0.95"/><circle cx="31" cy="30" r="4" fill="#ffffff" fill-opacity="0.95"/><path d="M 13 42 A 21 37 0 0 1 26 13" fill="none" stroke="url(#l7)" stroke-width="2.6" stroke-linecap="round"/></svg>
