<svg xmlns="http://www.w3.org/2000/svg" viewBox="0 0 64 64" width="64" height="64"><title>Occluder3D</title><defs><radialGradient id="r1" cx="0.5" cy="0.5" r="0.5" gradientUnits="objectBoundingBox"><stop offset="0" stop-color="#000" stop-opacity="0.42"/><stop offset="0.65" stop-color="#000" stop-opacity="0.189"/><stop offset="1" stop-color="#000" stop-opacity="0"/></radialGradient><linearGradient id="l2" x1="0" y1="0" x2="1" y2="1" gradientUnits="objectBoundingBox"><stop offset="0" stop-color="#596e87"/><stop offset="1" stop-color="#415063"/></linearGradient><linearGradient id="l3" x1="0" y1="0" x2="1" y2="1" gradientUnits="objectBoundingBox"><stop offset="0" stop-color="#2c3540"/><stop offset="1" stop-color="#1b2128"/></linearGradient><linearGradient id="l4" x1="0" y1="0" x2="1" y2="1" gradientUnits="objectBoundingBox"><stop offset="0" stop-color="#889cb4"/><stop offset="1" stop-color="#6f87a4"/></linearGradient><linearGradient id="l5" x1="0" y1="0" x2="0" y2="1" gradientUnits="objectBoundingBox"><stop offset="0" stop-color="#ffffff"/><stop offset="1" stop-color="#cfd8e3"/></linearGradient><radialGradient id="r6" cx="0.4" cy="0.35" r="0.5" gradientUnits="objectBoundingBox"><stop offset="0" stop-color="#b8d8e8"/><stop offset="0.7" stop-color="#58a4c8"/><stop offset="1" stop-color="#285f79"/></radialGradient></defs><ellipse cx="32" cy="57" rx="22" ry="4.5" fill="url(#r1)"/><polygon points="15.55,47.50 41.53,62.50 41.53,26.50 15.55,11.50" fill="url(#l2)"/><polygon points="41.53,62.50 48.45,58.50 48.45,22.50 41.53,26.50" fill="url(#l3)"/><polygon points="22.47,7.50 48.45,22.50 41.53,26.50 15.55,11.50" fill="url(#l4)"/><polyline points="15.55,11.50 41.53,26.50 48.45,22.50" fill="none" stroke="#a3b1c2" stroke-opacity="0.9" stroke-width="1.1" stroke-linejoin="round"/><line x1="41.53" y1="26.50" x2="41.53" y2="62.50" stroke="#a3b1c2" stroke-opacity="0.45" stroke-width="1"/><polygon points="15.55,47.50 41.53,62.50 48.45,58.50 48.45,22.50 22.47,7.50 15.55,11.50" fill="none" stroke="#0b0f15" stroke-opacity="0.7" stroke-width="1.4" stroke-linejoin="round"/><path d="M 18.0 30 Q 30 16.799999999999997 42.0 30 Q 30 43.2 18.0 30 Z" fill="url(#l5)" stroke="#0b0f15" stroke-opacity="0.75" stroke-width="1.5"/><circle cx="30" cy="30" r="5.54" fill="url(#r6)"/><circle cx="30" cy="30" r="2.38" fill="#0b0f15"/><circle cx="28.15" cy="28.15" r="1.06" fill="#fff"/><path d="M 19.92 38.18 L 40.08 21.82" fill="none" stroke="#0b0f15" stroke-opacity="0.6" stroke-width="5.0" stroke-linecap="round" stroke-linejoin="round"/><path d="M 19.92 38.18 L 40.08 21.82" fill="none" stroke="#ff5d5d" stroke-opacity="1.0" stroke-width="3.2" stroke-linecap="round" stroke-linejoin="round"/></svg>
