<svg xmlns="http://www.w3.org/2000/svg" viewBox="0 0 64 64" width="64" height="64"><title>SpringArm3D</title><defs><radialGradient id="r1" cx="0.5" cy="0.5" r="0.5" gradientUnits="objectBoundingBox"><stop offset="0" stop-color="#000" stop-opacity="0.42"/><stop offset="0.65" stop-color="#000" stop-opacity="0.189"/><stop offset="1" stop-color="#000" stop-opacity="0"/></radialGradient><radialGradient id="r2" cx="0.38" cy="0.32" r="0.72" fx="0.34" fy="0.28" gradientUnits="objectBoundingBox"><stop offset="0" stop-color="#e9ecf1"/><stop offset="0.45" stop-color="#afbdce"/><stop offset="0.8" stop-color="#7f93ad"/><stop offset="1" stop-color="#455467"/></radialGradient><linearGradient id="l3" x1="0" y1="0" x2="1" y2="1" gradientUnits="objectBoundingBox"><stop offset="0" stop-color="#fff" stop-opacity="0"/><stop offset="1" stop-color="#cdd5df" stop-opacity="0.55"/></linearGradient><radialGradient id="r4" cx="0.5" cy="0.5" r="0.5" gradientUnits="objectBoundingBox"><stop offset="0" stop-color="#fff" stop-opacity="0.95"/><stop offset="1" stop-color="#fff" stop-opacity="0"/></radialGradient><radialGradient id="r5" cx="0.38" cy="0.32" r="0.72" fx="0.34" fy="0.28" gradientUnits="objectBoundingBox"><stop offset="0" stop-color="#b2bbc7"/><stop offset="0.45" stop-color="#7b8ca3"/><stop offset="0.8" stop-color="#566476"/><stop offset="1" stop-color="#21262c"/></radialGradient><linearGradient id="l6" x1="0" y1="0" x2="1" y2="1" gradientUnits="objectBoundingBox"><stop offset="0" stop-color="#fff" stop-opacity="0"/><stop offset="1" stop-color="#98a4b4" stop-opacity="0.55"/></linearGradient><radialGradient id="r7" cx="0.5" cy="0.5" r="0.5" gradientUnits="objectBoundingBox"><stop offset="0" stop-color="#fff" stop-opacity="0.57"/><stop offset="1" stop-color="#fff" stop-opacity="0"/></radialGradient><radialGradient id="r8" cx="0.38" cy="0.32" r="0.72" fx="0.34" fy="0.28" gradientUnits="objectBoundingBox"><stop offset="0" stop-color="#b2bbc7"/><stop offset="0.45" stop-color="#7b8ca3"/><stop offset="0.8" stop-color="#566476"/><stop offset="1" stop-color="#21262c"/></radialGradient><linearGradient id="l9" x1="0" y1="0" x2="1" y2="1" gradientUnits="objectBoundingBox"><stop offset="0" stop-color="#fff" stop-opacity="0"/><stop offset="1" stop-color="#98a4b4" stop-opacity="0.55"/></linearGradient><radialGradient id="r10" cx="0.5" cy="0.5" r="0.5" gradientUnits="objectBoundingBox"><stop offset="0" stop-color="#fff" stop-opacity="0.57"/><stop offset="1" stop-color="#fff" stop-opacity="0"/></radialGradient><linearGradient id="l11" x1="0" y1="0" x2="0" y2="1" gradientUnits="objectBoundingBox"><stop offset="0" stop-color="#8998ae"/><stop offset="0.5" stop-color="#465262"/><stop offset="1" stop-color="#16191d"/></linearGradient><linearGradient id="l12" x1="0" y1="0" x2="0" y2="1" gradientUnits="objectBoundingBox"><stop offset="0" stop-color="#5b6b80"/><stop offset="1" stop-color="#2d343e"/></linearGradient><radialGradient id="r13" cx="0.4" cy="0.35" r="0.7" fx="0.35" fy="0.3" gradientUnits="objectBoundingBox"><stop offset="0" stop-color="#e8fffd"/><stop offset="0.35" stop-color="#56ddd7"/><stop offset="0.8" stop-color="#24b3ad"/><stop offset="1" stop-color="#0f4946"/></radialGradient></defs><ellipse cx="30" cy="58" rx="24" ry="4" fill="url(#r1)"/><circle cx="10" cy="52" r="6" fill="url(#r2)"/><path d="M 9.10 57.88 A 6 6 0 0 0 15.88 52.90" fill="none" stroke="url(#l3)" stroke-width="1.00"/><ellipse cx="7.96" cy="49.60" rx="2.16" ry="1.44" fill="url(#r4)" transform="rotate(-30 7.96 49.60)"/><circle cx="10" cy="52" r="6" fill="none" stroke="#0b0f15" stroke-opacity="0.7" stroke-width="1.4"/><path d="M 10.00 52.00 L 19.00 45.00" fill="none" stroke="#0b0f15" stroke-opacity="0.6" stroke-width="5.2" stroke-linecap="round" stroke-linejoin="round"/><path d="M 10.00 52.00 L 19.00 45.00" fill="none" stroke="#c9d3df" stroke-opacity="1.0" stroke-width="3.4" stroke-linecap="round" stroke-linejoin="round"/><path d="M 19.00 45.00 L 16.52 41.88 L 23.23 46.74 L 20.02 39.13 L 26.73 43.99 L 23.52 36.38 L 30.23 41.24 L 27.02 33.63 L 33.73 38.49 L 30.52 30.88 L 33.00 34.00" fill="none" stroke="#0b0f15" stroke-opacity="0.6" stroke-width="4.0" stroke-linecap="round" stroke-linejoin="round"/><path d="M 19.00 45.00 L 16.52 41.88 L 23.23 46.74 L 20.02 39.13 L 26.73 43.99 L 23.52 36.38 L 30.23 41.24 L 27.02 33.63 L 33.73 38.49 L 30.52 30.88 L 33.00 34.00" fill="none" stroke="#ffd35a" stroke-opacity="1.0" stroke-width="2.2" stroke-linecap="round" stroke-linejoin="round"/><path d="M 33.00 34.00 L 37.00 31.00" fill="none" stroke="#0b0f15" stroke-opacity="0.6" stroke-width="5.2" stroke-linecap="round" stroke-linejoin="round"/><path d="M 33.00 34.00 L 37.00 31.00" fill="none" stroke="#c9d3df" stroke-opacity="1.0" stroke-width="3.4" stroke-linecap="round" stroke-linejoin="round"/><circle cx="40.96" cy="11.940000000000001" r="4.93" fill="url(#r5)"/><path d="M 40.22 16.77 A 4.93 4.93 0 0 0 45.79 12.68" fill="none" stroke="url(#l6)" stroke-width="1.00"/><ellipse cx="39.28" cy="9.97" rx="1.77" ry="1.18" fill="url(#r7)" transform="rotate(-30 39.28 9.97)"/><circle cx="40.96" cy="11.940000000000001" r="4.93" fill="none" stroke="#0b0f15" stroke-opacity="0.7" stroke-width="1.4"/><circle cx="40.96" cy="11.94" r="1.58" fill="#1c2027"/><circle cx="50.239999999999995" cy="11.940000000000001" r="4.35" fill="url(#r8)"/><path d="M 49.59 16.20 A 4.35 4.35 0 0 0 54.50 12.59" fill="none" stroke="url(#l9)" stroke-width="1.00"/><ellipse cx="48.76" cy="10.20" rx="1.57" ry="1.04" fill="url(#r10)" transform="rotate(-30 48.76 10.20)"/><circle cx="50.239999999999995" cy="11.940000000000001" r="4.35" fill="none" stroke="#0b0f15" stroke-opacity="0.7" stroke-width="1.4"/><circle cx="50.24" cy="11.94" r="1.39" fill="#1c2027"/><rect x="34.00" y="16.00" width="19.72" height="15.08" rx="2.90" fill="url(#l11)" stroke="#0b0f15" stroke-opacity="0.75" stroke-width="1.5"/><path d="M 35.16 17.45 h 16.82" stroke="#97a3b4" stroke-opacity="0.7" stroke-width="1.2" stroke-linecap="round"/><polygon points="53.72,20.06 60.68,16.58 60.68,30.50 53.72,27.02" fill="url(#l12)" stroke="#0b0f15" stroke-opacity="0.75" stroke-width="1.5" stroke-linejoin="round"/><circle cx="43.86" cy="23.54" r="4.93" fill="url(#r13)" stroke="#0b0f15" stroke-opacity="0.75" stroke-width="1.4"/><circle cx="43.86" cy="23.54" r="2.32" fill="#0a3432" fill-opacity="0.75"/><circle cx="42.35" cy="21.92" r="1.04" fill="#fff" fill-opacity="0.9"/></svg>
