<svg xmlns="http://www.w3.org/2000/svg" viewBox="0 0 64 64" width="64" height="64"><title>UIText</title><defs><radialGradient id="r1" cx="0.5" cy="0.5" r="0.5" gradientUnits="objectBoundingBox"><stop offset="0" stop-color="#000" stop-opacity="0.42"/><stop offset="0.65" stop-color="#000" stop-opacity="0.189"/><stop offset="1" stop-color="#000" stop-opacity="0"/></radialGradient><linearGradient id="l2" x1="0" y1="0" x2="1" y2="1" gradientUnits="objectBoundingBox"><stop offset="0" stop-color="#a9db61"/><stop offset="1" stop-color="#8dcf2f"/></linearGradient><linearGradient id="l3" x1="0" y1="0" x2="1" y2="1" gradientUnits="objectBoundingBox"><stop offset="0" stop-color="#6e9f27"/><stop offset="1" stop-color="#577e1f"/></linearGradient><linearGradient id="l4" x1="0" y1="0" x2="1" y2="1" gradientUnits="objectBoundingBox"><stop offset="0" stop-color="#d2edab"/><stop offset="1" stop-color="#c0e689"/></linearGradient><linearGradient id="l5" x1="0" y1="0" x2="1" y2="1" gradientUnits="objectBoundingBox"><stop offset="0" stop-color="#b4e076"/><stop offset="1" stop-color="#98d444"/></linearGradient><linearGradient id="l6" x1="0" y1="0" x2="1" y2="1" gradientUnits="objectBoundingBox"><stop offset="0" stop-color="#7cb42c"/><stop offset="1" stop-color="#659324"/></linearGradient><linearGradient id="l7" x1="0" y1="0" x2="1" y2="1" gradientUnits="objectBoundingBox"><stop offset="0" stop-color="#ddf1c0"/><stop offset="1" stop-color="#cbea9e"/></linearGradient></defs><ellipse cx="32" cy="57" rx="20" ry="4.5" fill="url(#r1)"/><polygon points="24.21,50.00 32.00,54.50 32.00,24.50 24.21,20.00" fill="url(#l2)"/><polygon points="32.00,54.50 39.79,50.00 39.79,20.00 32.00,24.50" fill="url(#l3)"/><polygon points="32.00,15.50 39.79,20.00 32.00,24.50 24.21,20.00" fill="url(#l4)"/><polyline points="24.21,20.00 32.00,24.50 39.79,20.00" fill="none" stroke="#e4f3cd" stroke-opacity="0.9" stroke-width="1.1" stroke-linejoin="round"/><line x1="32.00" y1="24.50" x2="32.00" y2="54.50" stroke="#e4f3cd" stroke-opacity="0.45" stroke-width="1"/><polygon points="24.21,50.00 32.00,54.50 39.79,50.00 39.79,20.00 32.00,15.50 24.21,20.00" fill="none" stroke="#0b0f15" stroke-opacity="0.7" stroke-width="1.4" stroke-linejoin="round"/><polygon points="13.38,18.75 42.83,35.75 42.83,27.75 13.38,10.75" fill="url(#l5)"/><polygon points="42.83,35.75 50.62,31.25 50.62,23.25 42.83,27.75" fill="url(#l6)"/><polygon points="21.17,6.25 50.62,23.25 42.83,27.75 13.38,10.75" fill="url(#l7)"/><polyline points="13.38,10.75 42.83,27.75 50.62,23.25" fill="none" stroke="#eff8e2" stroke-opacity="0.9" stroke-width="1.1" stroke-linejoin="round"/><line x1="42.83" y1="27.75" x2="42.83" y2="35.75" stroke="#eff8e2" stroke-opacity="0.45" stroke-width="1"/><polygon points="13.38,18.75 42.83,35.75 50.62,31.25 50.62,23.25 21.17,6.25 13.38,10.75" fill="none" stroke="#0b0f15" stroke-opacity="0.7" stroke-width="1.4" stroke-linejoin="round"/></svg>
